<svg width="236" height="38" viewBox="0 0 236 38" fill="none" xmlns="http://www.w3.org/2000/svg">
<path d="M15.5537 3.92283V18.7195L12.1814 16.7924C6.19393 13.3514 2.47757 6.95097 2.47757 0H0V16.9301C0 22.4358 3.16578 27.5286 8.18975 29.9374L15.6225 33.5161V18.7195L18.9947 20.6465C24.9822 24.0875 28.6986 30.4879 28.6986 37.4389H31.1761V20.5088C31.1761 15.0031 28.0103 9.91029 22.9864 7.50154L15.5537 3.92283Z" fill="#111111"/>
<path d="M52.2328 31.7388C50.3781 31.7388 48.6346 31.4173 47.0024 30.7743C45.3949 30.1066 43.9729 29.1915 42.7364 28.0292C41.5246 26.8422 40.5725 25.4449 39.88 23.8374C39.2123 22.2052 38.8785 20.4247 38.8785 18.4957V17.9764C38.8785 16.0474 39.2123 14.2792 39.88 12.6717C40.5725 11.0395 41.5246 9.64225 42.7364 8.47993C43.9729 7.29287 45.3949 6.37785 47.0024 5.73487C48.6346 5.06715 50.3781 4.73329 52.2328 4.73329C53.9639 4.73329 55.5343 5.00532 56.9439 5.54939C58.3783 6.09346 59.6643 6.86009 60.8019 7.8493L57.9084 11.2992C57.1418 10.6067 56.2762 10.0874 55.3117 9.74117C54.372 9.37022 53.3457 9.18474 52.2328 9.18474C50.5759 9.18474 49.0797 9.55569 47.7443 10.2976C46.4336 11.0395 45.3949 12.0782 44.6283 13.4136C43.8864 14.7243 43.5154 16.2452 43.5154 17.9764V18.4957C43.5154 20.2268 43.8864 21.7601 44.6283 23.0955C45.3949 24.4062 46.4336 25.4325 47.7443 26.1744C49.0797 26.9164 50.5759 27.2873 52.2328 27.2873C53.3951 27.2873 54.4586 27.1018 55.423 26.7309C56.3875 26.3352 57.2531 25.7788 58.0197 25.0616L60.9502 28.4744C59.8127 29.4883 58.502 30.292 57.0181 30.8856C55.5343 31.4544 53.9392 31.7388 52.2328 31.7388ZM63.3803 31.2194V13.154H67.4979V18.3844L66.9785 18.3473C67.0527 16.9871 67.3371 15.9237 67.8317 15.1571C68.3263 14.3657 68.9693 13.8093 69.7607 13.4878C70.5521 13.1663 71.4176 13.0056 72.3574 13.0056H73.8412V17.2344H72.0235C70.6139 17.2344 69.5258 17.5559 68.7591 18.1989C68.0172 18.8419 67.6463 19.7817 67.6463 21.0182V31.2194H63.3803ZM83.8459 31.5904C82.0406 31.5904 80.4455 31.2071 79.0606 30.4404C77.7005 29.649 76.6247 28.5609 75.8333 27.176C75.0667 25.7664 74.6834 24.1342 74.6834 22.2794V21.9085C74.6834 20.1774 75.042 18.6317 75.7591 17.2715C76.4763 15.8866 77.4903 14.7985 78.801 14.0071C80.1117 13.191 81.6202 12.783 83.3266 12.783C85.1319 12.783 86.6776 13.2281 87.9635 14.1184C89.2495 14.984 90.1893 16.2205 90.7828 17.828C91.3763 19.4354 91.5371 21.3273 91.265 23.5036H77.7994V20.4617H88.9651L87.0732 22.0198C87.2711 20.808 87.2216 19.7693 86.9249 18.9037C86.6528 18.0382 86.2077 17.3828 85.5894 16.9377C84.9712 16.4678 84.2169 16.2329 83.3266 16.2329C82.3869 16.2329 81.5831 16.4802 80.9154 16.9748C80.2724 17.4694 79.7778 18.1495 79.4316 19.015C79.1101 19.8559 78.9494 20.8203 78.9494 21.9085V22.7988C78.9494 23.7632 79.1472 24.6288 79.5429 25.3954C79.9386 26.1621 80.5197 26.768 81.2864 27.2131C82.053 27.6583 82.968 27.8808 84.0314 27.8808C84.9712 27.8808 85.7502 27.7572 86.3684 27.5099C87.0114 27.2626 87.5802 26.8916 88.0748 26.397L90.5231 28.9566C89.7812 29.8222 88.8415 30.4775 87.7039 30.9227C86.5663 31.3678 85.2803 31.5904 83.8459 31.5904ZM102.896 31.5904C101.14 31.5904 99.557 31.1947 98.1474 30.4033C96.7378 29.612 95.6249 28.5238 94.8088 27.1389C93.9927 25.7293 93.5847 24.1218 93.5847 22.3165V21.9827C93.5847 20.1774 93.9927 18.5822 94.8088 17.1974C95.6249 15.8125 96.7378 14.7367 98.1474 13.97C99.557 13.1787 101.14 12.783 102.896 12.783C104.676 12.783 106.259 13.1787 107.644 13.97C109.029 14.7367 110.129 15.8125 110.945 17.1974C111.761 18.5575 112.169 20.1403 112.169 21.9456V22.3165C112.169 24.1218 111.761 25.7293 110.945 27.1389C110.129 28.5238 109.029 29.612 107.644 30.4033C106.259 31.1947 104.676 31.5904 102.896 31.5904ZM102.896 27.8066C103.885 27.8066 104.75 27.5841 105.492 27.1389C106.259 26.669 106.852 26.0137 107.273 25.1729C107.693 24.332 107.903 23.3799 107.903 22.3165V21.9456C107.903 20.8822 107.693 19.9548 107.273 19.1634C106.852 18.3473 106.259 17.7167 105.492 17.2715C104.75 16.8017 103.885 16.5667 102.896 16.5667C101.931 16.5667 101.066 16.8017 100.299 17.2715C99.557 17.7167 98.9635 18.3473 98.5183 19.1634C98.0979 19.9795 97.8877 20.9193 97.8877 21.9827V22.3165C97.8877 23.3799 98.0979 24.332 98.5183 25.1729C98.9635 26.0137 99.557 26.669 100.299 27.1389C101.066 27.5841 101.931 27.8066 102.896 27.8066ZM119.94 31.2194L112.966 13.154H117.418L122.982 28.4002H121.35L126.914 13.154H131.365L124.429 31.2194H119.94ZM141.495 31.5904C139.739 31.5904 138.157 31.1947 136.747 30.4033C135.337 29.612 134.224 28.5238 133.408 27.1389C132.592 25.7293 132.184 24.1218 132.184 22.3165V21.9827C132.184 20.1774 132.592 18.5822 133.408 17.1974C134.224 15.8125 135.337 14.7367 136.747 13.97C138.157 13.1787 139.739 12.783 141.495 12.783C143.276 12.783 144.858 13.1787 146.243 13.97C147.628 14.7367 148.729 15.8125 149.545 17.1974C150.361 18.5575 150.769 20.1403 150.769 21.9456V22.3165C150.769 24.1218 150.361 25.7293 149.545 27.1389C148.729 28.5238 147.628 29.612 146.243 30.4033C144.858 31.1947 143.276 31.5904 141.495 31.5904ZM141.495 27.8066C142.484 27.8066 143.35 27.5841 144.092 27.1389C144.858 26.669 145.452 26.0137 145.872 25.1729C146.293 24.332 146.503 23.3799 146.503 22.3165V21.9456C146.503 20.8822 146.293 19.9548 145.872 19.1634C145.452 18.3473 144.858 17.7167 144.092 17.2715C143.35 16.8017 142.484 16.5667 141.495 16.5667C140.531 16.5667 139.665 16.8017 138.898 17.2715C138.157 17.7167 137.563 18.3473 137.118 19.1634C136.697 19.9795 136.487 20.9193 136.487 21.9827V22.3165C136.487 23.3799 136.697 24.332 137.118 25.1729C137.563 26.0137 138.157 26.669 138.898 27.1389C139.665 27.5841 140.531 27.8066 141.495 27.8066ZM166.718 31.2194C165.457 31.2194 164.418 30.8114 163.602 29.9953C162.786 29.1792 162.378 28.1405 162.378 26.8793V5.25263H166.941V25.5809C166.941 25.9519 167.064 26.2734 167.312 26.5454C167.584 26.8174 167.905 26.9534 168.276 26.9534H178.737V31.2194H166.718ZM191.991 31.2194L191.917 25.6922L191.435 24.1342V19.8311C191.435 18.6441 191.101 17.8032 190.433 17.3086C189.765 16.7893 188.912 16.5296 187.873 16.5296C186.983 16.5296 186.043 16.7027 185.054 17.049C184.09 17.3952 183.249 17.9022 182.532 18.5699L180.603 15.6393C181.394 14.7738 182.47 14.0813 183.83 13.562C185.19 13.0427 186.625 12.783 188.133 12.783C189.642 12.783 190.952 13.0427 192.065 13.562C193.203 14.0813 194.081 14.848 194.699 15.8619C195.342 16.8511 195.663 18.0876 195.663 19.5715V25.4325C195.663 26.397 195.676 27.3615 195.701 28.326C195.725 29.2905 195.75 30.2549 195.775 31.2194H191.991ZM186.761 31.5904C184.733 31.5904 183.1 31.0958 181.864 30.1066C180.627 29.0926 180.009 27.7943 180.009 26.2115C180.009 25.1234 180.306 24.1713 180.899 23.3552C181.518 22.5144 182.371 21.859 183.459 21.3891C184.572 20.8945 185.87 20.6472 187.354 20.6472C189.555 20.6472 191.2 21.1295 192.288 22.0939C193.401 23.0584 193.957 24.332 193.957 25.9148H192.881C192.881 27.7201 192.362 29.1173 191.323 30.1066C190.285 31.0958 188.764 31.5904 186.761 31.5904ZM187.948 28.4373C189.036 28.4373 189.889 28.2271 190.507 27.8066C191.15 27.3615 191.472 26.768 191.472 26.0261C191.472 25.3336 191.15 24.7772 190.507 24.3568C189.864 23.9116 188.999 23.6891 187.91 23.6891C186.822 23.6891 185.957 23.9116 185.314 24.3568C184.671 24.7772 184.349 25.346 184.349 26.0632C184.349 26.7556 184.671 27.3244 185.314 27.7695C185.982 28.2147 186.859 28.4373 187.948 28.4373ZM209.857 31.5904C208.373 31.5904 207.038 31.2318 205.851 30.5146C204.688 29.7974 203.773 28.8206 203.106 27.5841L203.922 26.6938V31.2194H200.064V4.13976H204.33V17.3086L203.477 16.3071C204.144 15.2189 205.022 14.3657 206.11 13.7475C207.223 13.1045 208.46 12.783 209.82 12.783C211.452 12.783 212.911 13.1663 214.197 13.933C215.483 14.6996 216.497 15.7754 217.239 17.1603C217.981 18.5452 218.352 20.1526 218.352 21.9827V22.3536C218.352 24.2084 217.981 25.8282 217.239 27.2131C216.497 28.598 215.483 29.6738 214.197 30.4404C212.936 31.2071 211.489 31.5904 209.857 31.5904ZM209.152 27.8437C210.067 27.8437 210.896 27.6212 211.638 27.176C212.404 26.7309 212.998 26.1003 213.418 25.2842C213.863 24.4433 214.086 23.4665 214.086 22.3536V21.9827C214.086 20.8451 213.863 19.8806 213.418 19.0892C212.998 18.2731 212.404 17.6549 211.638 17.2344C210.896 16.7893 210.067 16.5667 209.152 16.5667C208.188 16.5667 207.31 16.7893 206.518 17.2344C205.752 17.6796 205.146 18.3226 204.701 19.1634C204.28 20.0042 204.07 21.0182 204.07 22.2052C204.07 23.3676 204.28 24.3691 204.701 25.21C205.146 26.0508 205.752 26.7061 206.518 27.176C207.31 27.6212 208.188 27.8437 209.152 27.8437ZM227.134 31.5533C225.7 31.5533 224.377 31.3431 223.165 30.9227C221.978 30.5022 220.989 29.9829 220.197 29.3647L222.052 26.4341C222.794 26.9534 223.598 27.3862 224.463 27.7325C225.329 28.0539 226.219 28.2147 227.134 28.2147C228.025 28.2147 228.729 28.0292 229.249 27.6583C229.793 27.2873 230.065 26.8051 230.065 26.2115C230.065 25.618 229.842 25.1852 229.397 24.9132C228.977 24.6164 228.42 24.3691 227.728 24.1713C227.035 23.9734 226.293 23.7756 225.502 23.5778C224.735 23.3799 224.006 23.0955 223.313 22.7246C222.621 22.3536 222.052 21.8343 221.607 21.1666C221.162 20.4988 220.939 19.5962 220.939 18.4586C220.939 16.7769 221.57 15.4168 222.831 14.3781C224.092 13.3147 225.786 12.783 227.913 12.783C229.1 12.783 230.226 12.9437 231.289 13.2652C232.352 13.5867 233.304 14.0319 234.145 14.6007L232.253 17.457C231.61 17.0119 230.918 16.6657 230.176 16.4183C229.434 16.171 228.668 16.0474 227.876 16.0474C227.011 16.0474 226.318 16.2452 225.799 16.6409C225.279 17.0119 225.02 17.4941 225.02 18.0876C225.02 18.6317 225.242 19.0645 225.688 19.386C226.157 19.6827 226.739 19.93 227.431 20.1279C228.148 20.301 228.902 20.4988 229.694 20.7214C230.485 20.944 231.227 21.2531 231.92 21.6488C232.637 22.0198 233.218 22.5391 233.663 23.2068C234.133 23.8745 234.368 24.7772 234.368 25.9148C234.368 27.0276 234.046 28.0045 233.403 28.8453C232.785 29.6861 231.932 30.3539 230.844 30.8485C229.78 31.3183 228.544 31.5533 227.134 31.5533Z" fill="#111111"/>
</svg>
